<?xml version="1.0" encoding="iso-8859-1"?>
<!-- Generator: Adobe Illustrator 18.1.1, SVG Export Plug-In . SVG Version: 6.00 Build 0)  -->
<svg version="1.1" id="Capa_1" xmlns="http://www.w3.org/2000/svg" xmlns:xlink="http://www.w3.org/1999/xlink" x="0px" y="0px"
	 viewBox="0 0 568.599 568.599" style="enable-background:new 0 0 568.599 568.599;" xml:space="preserve">
<g>
	<g>
		<path d="M565.692,147.211L507.96,89.479c-4.08-4.08-10.404-4.08-14.484,0L241.128,342.031L75.276,176.179
			c-4.08-4.08-10.404-4.08-14.484,0L3.06,233.911c-4.08,4.08-4.08,10.404,0,14.484l230.724,230.724
			c1.836,1.836,4.488,3.06,7.14,3.06s5.304-1.02,7.14-3.06l317.628-317.424C569.568,157.615,569.568,151.291,565.692,147.211z
			 M241.128,457.495L24.684,241.051l43.248-43.248l165.852,165.852c4.08,4.08,10.404,4.08,14.484,0L500.82,111.103l43.248,43.248
			L241.128,457.495z"/>
		<path d="M497.148,133.543L352.92,277.771c-2.04,2.04-2.04,5.304,0,7.14c1.02,1.02,2.244,1.428,3.672,1.428
			c1.428,0,2.652-0.408,3.672-1.428L500.82,144.355l10.812,10.812c2.04,2.04,5.304,2.04,7.14,0c2.04-2.04,2.04-5.304,0-7.14
			l-14.484-14.484c-1.02-1.02-2.244-1.428-3.672-1.428C499.188,132.115,498.168,132.523,497.148,133.543z"/>
	</g>
</g>
<g>
</g>
<g>
</g>
<g>
</g>
<g>
</g>
<g>
</g>
<g>
</g>
<g>
</g>
<g>
</g>
<g>
</g>
<g>
</g>
<g>
</g>
<g>
</g>
<g>
</g>
<g>
</g>
<g>
</g>
</svg>
