<?xml version="1.0" encoding="iso-8859-1"?>
<!-- Generator: Adobe Illustrator 18.0.0, SVG Export Plug-In . SVG Version: 6.00 Build 0)  -->
<svg version="1.1" id="Capa_1" xmlns="http://www.w3.org/2000/svg" xmlns:xlink="http://www.w3.org/1999/xlink" x="0px" y="0px"
	 viewBox="0 0 54 54" xml:space="preserve">
<g>
	<path d="M27,0C12.112,0,0,12.112,0,27s12.112,27,27,27s27-12.112,27-27S41.888,0,27,0z M27,52C13.215,52,2,40.785,2,27
		S13.215,2,27,2s25,11.215,25,25S40.785,52,27,52z"/>
	<path d="M35.304,19H17.866c-0.613,0-1.162,0.316-1.469,0.848c-0.306,0.53-0.307,1.164,0,1.695l8.719,15.102
		c0.307,0.53,0.855,0.848,1.469,0.848s1.162-0.317,1.469-0.848l8.719-15.102c0.307-0.531,0.306-1.165,0-1.695
		C36.466,19.316,35.917,19,35.304,19z M26.585,35.188L18.394,21h16.383L26.585,35.188z"/>
</g>
</svg>
